<svg aria-hidden="true" style="width:0;height:0;position:absolute;overflow:hidden" xmlns="http://www.w3.org/2000/svg"><defs><symbol id="tw" viewBox="0 0 37 32"><path fill="#fff" style="fill:var(--color1,#fff)" d="M33.469 8.283c1.458-1.094 2.771-2.406 3.792-3.938a14.363 14.363 0 0 1-4.375 1.167c1.604-.948 2.771-2.406 3.354-4.229a16.177 16.177 0 0 1-4.812 1.896A7.657 7.657 0 0 0 25.813.773a7.655 7.655 0 0 0-7.656 7.656c0 .583.073 1.167.219 1.75A22.215 22.215 0 0 1 2.553 2.158c-.656 1.094-1.021 2.406-1.021 3.865a7.536 7.536 0 0 0 3.427 6.344c-1.24-.073-2.479-.365-3.5-.948v.073c0 3.719 2.625 6.781 6.125 7.511-.583.146-1.313.292-1.969.292-.51 0-.948-.073-1.458-.146.948 3.063 3.792 5.25 7.146 5.323-2.625 2.042-5.906 3.281-9.479 3.281-.656 0-1.24-.073-1.823-.146 3.354 2.187 7.365 3.427 11.74 3.427 14.073 0 21.729-11.594 21.729-21.729V8.284z"/></symbol><symbol id="fs" viewBox="0 0 32 32"><path fill="#fff" style="fill:var(--color1,#fff)" d="M31.5 16.343c0-8.563-6.938-15.5-15.5-15.5S.5 7.781.5 16.343c0 7.75 5.625 14.188 13.063 15.312V20.843H9.625v-4.5h3.938v-3.375c0-3.875 2.313-6.063 5.812-6.063 1.75 0 3.5.313 3.5.313v3.813h-1.937c-1.938 0-2.562 1.187-2.562 2.438v2.875h4.313l-.688 4.5h-3.625v10.812c7.437-1.125 13.125-7.562 13.125-15.312z"/></symbol><symbol id="lin" viewBox="0 0 32 32"><path fill="#fff" style="fill:var(--color1,#fff)" d="M7.25 32V10.901H.687V32H7.25zM3.933 8.079c2.117 0 3.81-1.764 3.81-3.881 0-2.046-1.694-3.74-3.81-3.74-2.046 0-3.74 1.694-3.74 3.74 0 2.117 1.694 3.881 3.74 3.881zM31.736 32h.071V20.427c0-5.645-1.27-10.02-7.903-10.02-3.175 0-5.292 1.764-6.21 3.387h-.07v-2.893h-6.28V32h6.562V21.556c0-2.752.494-5.363 3.881-5.363s3.458 3.105 3.458 5.575V32h6.492z"/></symbol><symbol id="you" viewBox="0 0 45 32"><path fill="#fff" style="fill:var(--color1,#fff)" d="M43.664 5.831c-.486-1.944-2.025-3.484-3.889-3.97C36.291.889 22.518.889 22.518.889s-13.854 0-17.338.972c-1.863.486-3.403 2.025-3.889 3.97C.319 9.234.319 16.526.319 16.526s0 7.211.972 10.694c.486 1.944 2.025 3.403 3.889 3.889C8.664 32 22.518 32 22.518 32s13.773 0 17.257-.891c1.863-.486 3.403-1.944 3.889-3.889.972-3.484.972-10.694.972-10.694s0-7.292-.972-10.694zM17.982 23.088V9.963l11.505 6.563-11.505 6.563z"/></symbol><symbol id="icon-Vector" viewBox="0 0 32 32"><path d="m31.119 8.881-2.881 2.881a.75.75 0 0 1-1.063 0l-6.938-6.937a.75.75 0 0 1 0-1.063L23.118.881a3.006 3.006 0 0 1 4.244 0l3.756 3.756a2.995 2.995 0 0 1 0 4.244zM17.762 6.237 1.349 22.649.024 30.243a1.503 1.503 0 0 0 1.738 1.738l7.594-1.331 16.412-16.412a.75.75 0 0 0 0-1.063L18.83 6.238a.758.758 0 0 0-1.069 0zM7.756 21.244a.872.872 0 0 1 0-1.238l9.625-9.625c.344-.344.894-.344 1.238 0s.344.894 0 1.238l-9.625 9.625a.87.87 0 0 1-1.237 0zM5.5 26.5h3v2.269l-4.031.706-1.944-1.944.706-4.031H5.5v3z"/></symbol><symbol id="icon-Vector-1" viewBox="0 0 32 32"><path d="M22 6a6 6 0 1 0-12 0 6 6 0 0 0 12 0zm-7.401 9.069c-3.708-2.27-9.714-2.894-12.737-3.066-1.016-.057-1.863.716-1.863 1.693v13.925c0 .896.724 1.643 1.656 1.691 2.729.143 8.249.667 12.065 2.589.586.295 1.28-.107 1.28-.742V15.785a.832.832 0 0 0-.401-.716zm15.538-3.066c-3.022.171-9.029.796-12.736 3.066a.848.848 0 0 0-.401.727v15.362c0 .637.696 1.039 1.284.744 3.815-1.92 9.333-2.444 12.061-2.588.931-.049 1.656-.796 1.656-1.691V13.697c-.001-.977-.848-1.751-1.863-1.693z"/></symbol><symbol id="icon-Vector-2" viewBox="0 0 34 32"><path d="M33.968 6.968v1.129a.563.563 0 0 1-.564.564H31.71v.847a.847.847 0 0 1-.847.847H3.202a.847.847 0 0 1-.847-.847v-.847H.661a.563.563 0 0 1-.564-.564V6.968a.565.565 0 0 1 .348-.522L16.816.236a.567.567 0 0 1 .432 0l16.371 6.21a.565.565 0 0 1 .348.522zm-1.694 21.451H1.79c-.935 0-1.694.758-1.694 1.694v1.129a.563.563 0 0 0 .564.564h32.742a.567.567 0 0 0 .564-.564v-1.129c0-.935-.758-1.694-1.694-1.694zM5.742 11.484v13.548h-2.54a.847.847 0 0 0-.847.847v1.411H31.71v-1.411a.847.847 0 0 0-.847-.847h-2.54V11.484h-4.516v13.548h-4.516V11.484h-4.516v13.548h-4.516V11.484H5.743z"/></symbol></defs></svg>